<svg xmlns="http://www.w3.org/2000/svg" width="512" height="256" viewBox="0 0 512 256"><title>W02 船板刻</title><g><path d="M-25 87v58 M-13 96v42 M-4 104v26" fill="none" stroke="#705047" stroke-width="2.5" stroke-linecap="round" stroke-linejoin="round"/><path d="M7 87v58 M19 96v42 M28 104v26" fill="none" stroke="#705047" stroke-width="4" stroke-linecap="round" stroke-linejoin="round"/><path d="M39 87v58 M51 96v42 M60 104v26" fill="none" stroke="#705047" stroke-width="2.5" stroke-linecap="round" stroke-linejoin="round"/><path d="M71 87v58 M83 96v42 M92 104v26" fill="none" stroke="#705047" stroke-width="2.5" stroke-linecap="round" stroke-linejoin="round"/><path d="M103 87v58 M115 96v42 M124 104v26" fill="none" stroke="#705047" stroke-width="4" stroke-linecap="round" stroke-linejoin="round"/><path d="M135 87v58 M147 96v42 M156 104v26" fill="none" stroke="#705047" stroke-width="2.5" stroke-linecap="round" stroke-linejoin="round"/><path d="M167 87v58 M179 96v42 M188 104v26" fill="none" stroke="#705047" stroke-width="2.5" stroke-linecap="round" stroke-linejoin="round"/><path d="M199 87v58 M211 96v42 M220 104v26" fill="none" stroke="#705047" stroke-width="4" stroke-linecap="round" stroke-linejoin="round"/><path d="M231 87v58 M243 96v42 M252 104v26" fill="none" stroke="#705047" stroke-width="2.5" stroke-linecap="round" stroke-linejoin="round"/><path d="M263 87v58 M275 96v42 M284 104v26" fill="none" stroke="#705047" stroke-width="2.5" stroke-linecap="round" stroke-linejoin="round"/><path d="M295 87v58 M307 96v42 M316 104v26" fill="none" stroke="#705047" stroke-width="4" stroke-linecap="round" stroke-linejoin="round"/><path d="M327 87v58 M339 96v42 M348 104v26" fill="none" stroke="#705047" stroke-width="2.5" stroke-linecap="round" stroke-linejoin="round"/><path d="M359 87v58 M371 96v42 M380 104v26" fill="none" stroke="#705047" stroke-width="2.5" stroke-linecap="round" stroke-linejoin="round"/><path d="M391 87v58 M403 96v42 M412 104v26" fill="none" stroke="#705047" stroke-width="4" stroke-linecap="round" stroke-linejoin="round"/><path d="M423 87v58 M435 96v42 M444 104v26" fill="none" stroke="#705047" stroke-width="2.5" stroke-linecap="round" stroke-linejoin="round"/><path d="M455 87v58 M467 96v42 M476 104v26" fill="none" stroke="#705047" stroke-width="2.5" stroke-linecap="round" stroke-linejoin="round"/><path d="M487 87v58 M499 96v42 M508 104v26" fill="none" stroke="#705047" stroke-width="4" stroke-linecap="round" stroke-linejoin="round"/><path d="M519 87v58 M531 96v42 M540 104v26" fill="none" stroke="#705047" stroke-width="2.5" stroke-linecap="round" stroke-linejoin="round"/></g></svg>
