<svg xmlns="http://www.w3.org/2000/svg" width="512" height="256" viewBox="0 0 512 256"><title>W04 缆绳影</title><g><path d="M-64 130C-47 74 -17 74 0 130 M-64 130C-47 184 -17 184 0 130" fill="none" stroke="#705047" stroke-width="3" stroke-linecap="round" stroke-linejoin="round"/><path d="M0 130C17 74 47 74 64 130 M0 130C17 184 47 184 64 130" fill="none" stroke="#705047" stroke-width="3" stroke-linecap="round" stroke-linejoin="round"/><path d="M64 130C81 74 111 74 128 130 M64 130C81 184 111 184 128 130" fill="none" stroke="#705047" stroke-width="3" stroke-linecap="round" stroke-linejoin="round"/><path d="M128 130C145 74 175 74 192 130 M128 130C145 184 175 184 192 130" fill="none" stroke="#705047" stroke-width="3" stroke-linecap="round" stroke-linejoin="round"/><path d="M192 130C209 74 239 74 256 130 M192 130C209 184 239 184 256 130" fill="none" stroke="#705047" stroke-width="3" stroke-linecap="round" stroke-linejoin="round"/><path d="M256 130C273 74 303 74 320 130 M256 130C273 184 303 184 320 130" fill="none" stroke="#705047" stroke-width="3" stroke-linecap="round" stroke-linejoin="round"/><path d="M320 130C337 74 367 74 384 130 M320 130C337 184 367 184 384 130" fill="none" stroke="#705047" stroke-width="3" stroke-linecap="round" stroke-linejoin="round"/><path d="M384 130C401 74 431 74 448 130 M384 130C401 184 431 184 448 130" fill="none" stroke="#705047" stroke-width="3" stroke-linecap="round" stroke-linejoin="round"/><path d="M448 130C465 74 495 74 512 130 M448 130C465 184 495 184 512 130" fill="none" stroke="#705047" stroke-width="3" stroke-linecap="round" stroke-linejoin="round"/><path d="M512 130C529 74 559 74 576 130 M512 130C529 184 559 184 576 130" fill="none" stroke="#705047" stroke-width="3" stroke-linecap="round" stroke-linejoin="round"/></g></svg>
