<svg xmlns="http://www.w3.org/2000/svg" width="512" height="256" viewBox="0 0 512 256"><title>W05 雾点</title><g><circle cx="-54" cy="127" r="7" fill="#526d72"/><circle cx="-35" cy="105" r="3.8" fill="#526d72"/><circle cx="-19" cy="144" r="5.2" fill="#526d72"/><circle cx="10" cy="127" r="7" fill="#526d72"/><circle cx="29" cy="105" r="3.8" fill="#526d72"/><circle cx="45" cy="144" r="5.2" fill="#526d72"/><circle cx="74" cy="127" r="7" fill="#526d72"/><circle cx="93" cy="105" r="3.8" fill="#526d72"/><circle cx="109" cy="144" r="5.2" fill="#526d72"/><circle cx="138" cy="127" r="7" fill="#526d72"/><circle cx="157" cy="105" r="3.8" fill="#526d72"/><circle cx="173" cy="144" r="5.2" fill="#526d72"/><circle cx="202" cy="127" r="7" fill="#526d72"/><circle cx="221" cy="105" r="3.8" fill="#526d72"/><circle cx="237" cy="144" r="5.2" fill="#526d72"/><circle cx="266" cy="127" r="7" fill="#526d72"/><circle cx="285" cy="105" r="3.8" fill="#526d72"/><circle cx="301" cy="144" r="5.2" fill="#526d72"/><circle cx="330" cy="127" r="7" fill="#526d72"/><circle cx="349" cy="105" r="3.8" fill="#526d72"/><circle cx="365" cy="144" r="5.2" fill="#526d72"/><circle cx="394" cy="127" r="7" fill="#526d72"/><circle cx="413" cy="105" r="3.8" fill="#526d72"/><circle cx="429" cy="144" r="5.2" fill="#526d72"/><circle cx="458" cy="127" r="7" fill="#526d72"/><circle cx="477" cy="105" r="3.8" fill="#526d72"/><circle cx="493" cy="144" r="5.2" fill="#526d72"/><circle cx="522" cy="127" r="7" fill="#526d72"/><circle cx="541" cy="105" r="3.8" fill="#526d72"/><circle cx="557" cy="144" r="5.2" fill="#526d72"/></g></svg>
