<svg xmlns="http://www.w3.org/2000/svg" width="512" height="256" viewBox="0 0 512 256"><title>W12 檐雨</title><g><path d="M-10 89l-12 14" fill="none" stroke="#526d72" stroke-width="2.8" stroke-linecap="round" stroke-linejoin="round"/><circle cx="-22" cy="103" r="3" fill="#526d72"/><path d="M22 89l-12 27" fill="none" stroke="#526d72" stroke-width="2.8" stroke-linecap="round" stroke-linejoin="round"/><circle cx="10" cy="116" r="3" fill="#526d72"/><path d="M54 89l-12 40" fill="none" stroke="#526d72" stroke-width="2.8" stroke-linecap="round" stroke-linejoin="round"/><circle cx="42" cy="129" r="3" fill="#526d72"/><path d="M86 89l-12 53" fill="none" stroke="#526d72" stroke-width="2.8" stroke-linecap="round" stroke-linejoin="round"/><circle cx="74" cy="142" r="3" fill="#526d72"/><path d="M118 89l-12 37" fill="none" stroke="#526d72" stroke-width="2.8" stroke-linecap="round" stroke-linejoin="round"/><circle cx="106" cy="126" r="3" fill="#526d72"/><path d="M150 89l-12 50" fill="none" stroke="#526d72" stroke-width="2.8" stroke-linecap="round" stroke-linejoin="round"/><circle cx="138" cy="139" r="3" fill="#526d72"/><path d="M182 89l-12 34" fill="none" stroke="#526d72" stroke-width="2.8" stroke-linecap="round" stroke-linejoin="round"/><circle cx="170" cy="123" r="3" fill="#526d72"/><path d="M214 89l-12 47" fill="none" stroke="#526d72" stroke-width="2.8" stroke-linecap="round" stroke-linejoin="round"/><circle cx="202" cy="136" r="3" fill="#526d72"/><path d="M246 89l-12 31" fill="none" stroke="#526d72" stroke-width="2.8" stroke-linecap="round" stroke-linejoin="round"/><circle cx="234" cy="120" r="3" fill="#526d72"/><path d="M278 89l-12 44" fill="none" stroke="#526d72" stroke-width="2.8" stroke-linecap="round" stroke-linejoin="round"/><circle cx="266" cy="133" r="3" fill="#526d72"/><path d="M310 89l-12 28" fill="none" stroke="#526d72" stroke-width="2.8" stroke-linecap="round" stroke-linejoin="round"/><circle cx="298" cy="117" r="3" fill="#526d72"/><path d="M342 89l-12 41" fill="none" stroke="#526d72" stroke-width="2.8" stroke-linecap="round" stroke-linejoin="round"/><circle cx="330" cy="130" r="3" fill="#526d72"/><path d="M374 89l-12 54" fill="none" stroke="#526d72" stroke-width="2.8" stroke-linecap="round" stroke-linejoin="round"/><circle cx="362" cy="143" r="3" fill="#526d72"/><path d="M406 89l-12 38" fill="none" stroke="#526d72" stroke-width="2.8" stroke-linecap="round" stroke-linejoin="round"/><circle cx="394" cy="127" r="3" fill="#526d72"/><path d="M438 89l-12 51" fill="none" stroke="#526d72" stroke-width="2.8" stroke-linecap="round" stroke-linejoin="round"/><circle cx="426" cy="140" r="3" fill="#526d72"/><path d="M470 89l-12 35" fill="none" stroke="#526d72" stroke-width="2.8" stroke-linecap="round" stroke-linejoin="round"/><circle cx="458" cy="124" r="3" fill="#526d72"/><path d="M502 89l-12 48" fill="none" stroke="#526d72" stroke-width="2.8" stroke-linecap="round" stroke-linejoin="round"/><circle cx="490" cy="137" r="3" fill="#526d72"/><path d="M534 89l-12 32" fill="none" stroke="#526d72" stroke-width="2.8" stroke-linecap="round" stroke-linejoin="round"/><circle cx="522" cy="121" r="3" fill="#526d72"/></g></svg>
