<svg xmlns="http://www.w3.org/2000/svg" width="512" height="256" viewBox="0 0 512 256"><title>W17 釉泪</title><g><path d="M-128 56H0V104Q-12 107 -20 112V182Q-24 192 -28 182V111Q-43 104 -55 114V147Q-59 158 -63 147V110Q-83 104 -96 119V171Q-101 183 -105 171V111Q-117 104 -128 111Z" fill="#6b9892" stroke="#6b9892" stroke-width="0" stroke-linecap="round" stroke-linejoin="round"/><path d="M0 56H128V104Q116 107 108 112V182Q104 192 100 182V111Q85 104 73 114V147Q69 158 65 147V110Q45 104 32 119V171Q27 183 23 171V111Q11 104 0 111Z" fill="#6b9892" stroke="#6b9892" stroke-width="0" stroke-linecap="round" stroke-linejoin="round"/><path d="M128 56H256V104Q244 107 236 112V182Q232 192 228 182V111Q213 104 201 114V147Q197 158 193 147V110Q173 104 160 119V171Q155 183 151 171V111Q139 104 128 111Z" fill="#6b9892" stroke="#6b9892" stroke-width="0" stroke-linecap="round" stroke-linejoin="round"/><path d="M256 56H384V104Q372 107 364 112V182Q360 192 356 182V111Q341 104 329 114V147Q325 158 321 147V110Q301 104 288 119V171Q283 183 279 171V111Q267 104 256 111Z" fill="#6b9892" stroke="#6b9892" stroke-width="0" stroke-linecap="round" stroke-linejoin="round"/><path d="M384 56H512V104Q500 107 492 112V182Q488 192 484 182V111Q469 104 457 114V147Q453 158 449 147V110Q429 104 416 119V171Q411 183 407 171V111Q395 104 384 111Z" fill="#6b9892" stroke="#6b9892" stroke-width="0" stroke-linecap="round" stroke-linejoin="round"/><path d="M512 56H640V104Q628 107 620 112V182Q616 192 612 182V111Q597 104 585 114V147Q581 158 577 147V110Q557 104 544 119V171Q539 183 535 171V111Q523 104 512 111Z" fill="#6b9892" stroke="#6b9892" stroke-width="0" stroke-linecap="round" stroke-linejoin="round"/></g></svg>
