<svg xmlns="http://www.w3.org/2000/svg" width="1024" height="43.7" viewBox="0 -21.85 1024 43.7"><g fill="none" stroke="#667e68" stroke-width="4.5" stroke-linecap="round"><path d="M0 0H1024"/><path d="M21.333333333333332 0Q14.933333333333332 -11.2 21.333333333333332 -17.6Q28.53333333333333 -6.4 21.333333333333332 0"/><circle cx="21.333333333333332" cy="0" r="2.8" fill="#667e68" stroke="none"/><path d="M64 0Q57.6 11.2 64 17.6Q71.2 6.4 64 0"/><circle cx="64" cy="0" r="2.8" fill="#667e68" stroke="none"/><path d="M106.66666666666667 0Q100.26666666666667 -11.2 106.66666666666667 -17.6Q113.86666666666667 -6.4 106.66666666666667 0"/><circle cx="106.66666666666667" cy="0" r="2.8" fill="#667e68" stroke="none"/><path d="M149.33333333333334 0Q142.93333333333334 11.2 149.33333333333334 17.6Q156.53333333333333 6.4 149.33333333333334 0"/><circle cx="149.33333333333334" cy="0" r="2.8" fill="#667e68" stroke="none"/><path d="M192 0Q185.6 -11.2 192 -17.6Q199.2 -6.4 192 0"/><circle cx="192" cy="0" r="2.8" fill="#667e68" stroke="none"/><path d="M234.66666666666666 0Q228.26666666666665 11.2 234.66666666666666 17.6Q241.86666666666665 6.4 234.66666666666666 0"/><circle cx="234.66666666666666" cy="0" r="2.8" fill="#667e68" stroke="none"/><path d="M277.3333333333333 0Q270.93333333333334 -11.2 277.3333333333333 -17.6Q284.5333333333333 -6.4 277.3333333333333 0"/><circle cx="277.3333333333333" cy="0" r="2.8" fill="#667e68" stroke="none"/><path d="M320 0Q313.6 11.2 320 17.6Q327.2 6.4 320 0"/><circle cx="320" cy="0" r="2.8" fill="#667e68" stroke="none"/><path d="M362.6666666666667 0Q356.2666666666667 -11.2 362.6666666666667 -17.6Q369.8666666666667 -6.4 362.6666666666667 0"/><circle cx="362.6666666666667" cy="0" r="2.8" fill="#667e68" stroke="none"/><path d="M405.3333333333333 0Q398.93333333333334 11.2 405.3333333333333 17.6Q412.5333333333333 6.4 405.3333333333333 0"/><circle cx="405.3333333333333" cy="0" r="2.8" fill="#667e68" stroke="none"/><path d="M448 0Q441.6 -11.2 448 -17.6Q455.2 -6.4 448 0"/><circle cx="448" cy="0" r="2.8" fill="#667e68" stroke="none"/><path d="M490.6666666666667 0Q484.2666666666667 11.2 490.6666666666667 17.6Q497.8666666666667 6.4 490.6666666666667 0"/><circle cx="490.6666666666667" cy="0" r="2.8" fill="#667e68" stroke="none"/><path d="M533.3333333333334 0Q526.9333333333334 -11.2 533.3333333333334 -17.6Q540.5333333333334 -6.4 533.3333333333334 0"/><circle cx="533.3333333333334" cy="0" r="2.8" fill="#667e68" stroke="none"/><path d="M576 0Q569.6 11.2 576 17.6Q583.2 6.4 576 0"/><circle cx="576" cy="0" r="2.8" fill="#667e68" stroke="none"/><path d="M618.6666666666666 0Q612.2666666666667 -11.2 618.6666666666666 -17.6Q625.8666666666667 -6.4 618.6666666666666 0"/><circle cx="618.6666666666666" cy="0" r="2.8" fill="#667e68" stroke="none"/><path d="M661.3333333333334 0Q654.9333333333334 11.2 661.3333333333334 17.6Q668.5333333333334 6.4 661.3333333333334 0"/><circle cx="661.3333333333334" cy="0" r="2.8" fill="#667e68" stroke="none"/><path d="M704 0Q697.6 -11.2 704 -17.6Q711.2 -6.4 704 0"/><circle cx="704" cy="0" r="2.8" fill="#667e68" stroke="none"/><path d="M746.6666666666666 0Q740.2666666666667 11.2 746.6666666666666 17.6Q753.8666666666667 6.4 746.6666666666666 0"/><circle cx="746.6666666666666" cy="0" r="2.8" fill="#667e68" stroke="none"/><path d="M789.3333333333334 0Q782.9333333333334 -11.2 789.3333333333334 -17.6Q796.5333333333334 -6.4 789.3333333333334 0"/><circle cx="789.3333333333334" cy="0" r="2.8" fill="#667e68" stroke="none"/><path d="M832 0Q825.6 11.2 832 17.6Q839.2 6.4 832 0"/><circle cx="832" cy="0" r="2.8" fill="#667e68" stroke="none"/><path d="M874.6666666666666 0Q868.2666666666667 -11.2 874.6666666666666 -17.6Q881.8666666666667 -6.4 874.6666666666666 0"/><circle cx="874.6666666666666" cy="0" r="2.8" fill="#667e68" stroke="none"/><path d="M917.3333333333334 0Q910.9333333333334 11.2 917.3333333333334 17.6Q924.5333333333334 6.4 917.3333333333334 0"/><circle cx="917.3333333333334" cy="0" r="2.8" fill="#667e68" stroke="none"/><path d="M960 0Q953.6 -11.2 960 -17.6Q967.2 -6.4 960 0"/><circle cx="960" cy="0" r="2.8" fill="#667e68" stroke="none"/><path d="M1002.6666666666666 0Q996.2666666666667 11.2 1002.6666666666666 17.6Q1009.8666666666667 6.4 1002.6666666666666 0"/><circle cx="1002.6666666666666" cy="0" r="2.8" fill="#667e68" stroke="none"/></g></svg>