<svg xmlns="http://www.w3.org/2000/svg" width="1024" height="65.7" viewBox="0 -32.85 1024 65.7"><g fill="none" stroke="#e5d6b7" stroke-width="4.5" stroke-linecap="round"><path d="M0 0H1024"/><path d="M25.6 0Q15.200000000000001 -18.2 25.6 -28.6Q37.300000000000004 -10.4 25.6 0"/><circle cx="25.6" cy="0" r="2.8" fill="#e5d6b7" stroke="none"/><path d="M76.8 0Q66.39999999999999 18.2 76.8 28.6Q88.5 10.4 76.8 0"/><circle cx="76.8" cy="0" r="2.8" fill="#e5d6b7" stroke="none"/><path d="M128 0Q117.6 -18.2 128 -28.6Q139.7 -10.4 128 0"/><circle cx="128" cy="0" r="2.8" fill="#e5d6b7" stroke="none"/><path d="M179.2 0Q168.79999999999998 18.2 179.2 28.6Q190.89999999999998 10.4 179.2 0"/><circle cx="179.2" cy="0" r="2.8" fill="#e5d6b7" stroke="none"/><path d="M230.4 0Q220 -18.2 230.4 -28.6Q242.1 -10.4 230.4 0"/><circle cx="230.4" cy="0" r="2.8" fill="#e5d6b7" stroke="none"/><path d="M281.6 0Q271.20000000000005 18.2 281.6 28.6Q293.3 10.4 281.6 0"/><circle cx="281.6" cy="0" r="2.8" fill="#e5d6b7" stroke="none"/><path d="M332.8 0Q322.40000000000003 -18.2 332.8 -28.6Q344.5 -10.4 332.8 0"/><circle cx="332.8" cy="0" r="2.8" fill="#e5d6b7" stroke="none"/><path d="M384 0Q373.6 18.2 384 28.6Q395.7 10.4 384 0"/><circle cx="384" cy="0" r="2.8" fill="#e5d6b7" stroke="none"/><path d="M435.2 0Q424.8 -18.2 435.2 -28.6Q446.9 -10.4 435.2 0"/><circle cx="435.2" cy="0" r="2.8" fill="#e5d6b7" stroke="none"/><path d="M486.4 0Q476 18.2 486.4 28.6Q498.09999999999997 10.4 486.4 0"/><circle cx="486.4" cy="0" r="2.8" fill="#e5d6b7" stroke="none"/><path d="M537.6 0Q527.2 -18.2 537.6 -28.6Q549.3000000000001 -10.4 537.6 0"/><circle cx="537.6" cy="0" r="2.8" fill="#e5d6b7" stroke="none"/><path d="M588.8 0Q578.4 18.2 588.8 28.6Q600.5 10.4 588.8 0"/><circle cx="588.8" cy="0" r="2.8" fill="#e5d6b7" stroke="none"/><path d="M640 0Q629.6 -18.2 640 -28.6Q651.7 -10.4 640 0"/><circle cx="640" cy="0" r="2.8" fill="#e5d6b7" stroke="none"/><path d="M691.2 0Q680.8000000000001 18.2 691.2 28.6Q702.9000000000001 10.4 691.2 0"/><circle cx="691.2" cy="0" r="2.8" fill="#e5d6b7" stroke="none"/><path d="M742.4 0Q732 -18.2 742.4 -28.6Q754.1 -10.4 742.4 0"/><circle cx="742.4" cy="0" r="2.8" fill="#e5d6b7" stroke="none"/><path d="M793.6 0Q783.2 18.2 793.6 28.6Q805.3000000000001 10.4 793.6 0"/><circle cx="793.6" cy="0" r="2.8" fill="#e5d6b7" stroke="none"/><path d="M844.8 0Q834.4 -18.2 844.8 -28.6Q856.5 -10.4 844.8 0"/><circle cx="844.8" cy="0" r="2.8" fill="#e5d6b7" stroke="none"/><path d="M896 0Q885.6 18.2 896 28.6Q907.7 10.4 896 0"/><circle cx="896" cy="0" r="2.8" fill="#e5d6b7" stroke="none"/><path d="M947.2 0Q936.8000000000001 -18.2 947.2 -28.6Q958.9000000000001 -10.4 947.2 0"/><circle cx="947.2" cy="0" r="2.8" fill="#e5d6b7" stroke="none"/><path d="M998.4 0Q988 18.2 998.4 28.6Q1010.1 10.4 998.4 0"/><circle cx="998.4" cy="0" r="2.8" fill="#e5d6b7" stroke="none"/></g></svg>