<svg xmlns="http://www.w3.org/2000/svg" width="1024" height="10" viewBox="0 -5 1024 10"><g fill="#e5d6b7" stroke="none" stroke-width="0" stroke-linecap="round"><circle cx="0" cy="0" r="3"/><circle cx="51.2" cy="0" r="3"/><circle cx="102.4" cy="0" r="3"/><circle cx="153.6" cy="0" r="3"/><circle cx="204.8" cy="0" r="3"/><circle cx="256" cy="0" r="3"/><circle cx="307.2" cy="0" r="3"/><circle cx="358.4" cy="0" r="3"/><circle cx="409.6" cy="0" r="3"/><circle cx="460.8" cy="0" r="3"/><circle cx="512" cy="0" r="3"/><circle cx="563.2" cy="0" r="3"/><circle cx="614.4" cy="0" r="3"/><circle cx="665.6" cy="0" r="3"/><circle cx="716.8" cy="0" r="3"/><circle cx="768" cy="0" r="3"/><circle cx="819.2" cy="0" r="3"/><circle cx="870.4" cy="0" r="3"/><circle cx="921.6" cy="0" r="3"/><circle cx="972.8" cy="0" r="3"/></g></svg>